<svg id="Layer_1" data-name="Layer 1" xmlns="http://www.w3.org/2000/svg" viewBox="0 0 1169.98 1103.54"><defs><style>.cls-1{font-size:228.33px;font-family:Aquawax-Medium, Aquawax;font-weight:500;}.cls-2{font-size:64.09px;font-family:MyriadPro-Semibold, Myriad Pro;font-weight:600;}.cls-3{fill-rule:evenodd;}</style></defs><title>Advaya_Final_Logo(SVG)</title><text class="cls-1" transform="translate(4.34 964.14) scale(1 1.08)">ADVAYA</text><text class="cls-2" transform="translate(64.16 1087.52)">YOU DESERVE THE BEST</text><path d="M773.94,601.18a29.63,29.63,0,1,0-21-8.67A29.51,29.51,0,0,0,773.94,601.18Zm-8.82-38.46a12.48,12.48,0,1,1,0,17.66A12.43,12.43,0,0,1,765.12,562.72Z" transform="translate(-415.01 -448.23)"/><path d="M1231.48,606.6a29.6,29.6,0,1,0-21-8.66A29.58,29.58,0,0,0,1231.48,606.6Zm-8.82-38.45A12.47,12.47,0,1,1,1219,577,12.45,12.45,0,0,1,1222.66,568.15Z" transform="translate(-415.01 -448.23)"/><path d="M732,768.47c11.56,10.58,27.24,16.41,44.16,16.41,32.79,0,58.48-27.87,58.48-63.44a43.26,43.26,0,0,0-43.2-43.22c-12.06,0-22.32,4-29.66,11.6-7.61,7.86-11.41,19-11,32.23a8.58,8.58,0,0,0,17.15-.56c-.28-8.46,1.85-15.29,6.16-19.74,4-4.17,10-6.37,17.33-6.37a26.08,26.08,0,0,1,26.05,26.06c0,25.95-18.15,46.28-41.33,46.28-27.36,0-46-18.25-47.58-46.51.09-39.61,24.75-65.19,62.86-65.19,20.17,0,36.29,12.91,44.1,20.61a8.83,8.83,0,0,0,1.23,1l31.17,34.18,2-21.27-22.2-26.2a8.7,8.7,0,0,0-1.39-1.13c-16.46-15.71-35.9-24.34-54.91-24.34-22.42,0-42.65,7.81-57,22-15.08,14.94-23,35.88-23,60.56,0,.15,0,.3,0,.45C712.42,741,719.53,757.07,732,768.47Z" transform="translate(-415.01 -448.23)"/><path d="M859,646.48l27,28,22.26-3-36-36a8.91,8.91,0,0,0-1-1.23c-7.69-7.82-20.59-23.94-20.59-44.12,0-38.12,25.57-62.79,65.17-62.88,28.25,1.57,46.49,20.23,46.49,47.6,0,23.18-20.32,41.34-46.27,41.34A26.09,26.09,0,0,1,890,590.16c0-7.31,2.2-13.3,6.37-17.33,4.45-4.31,11.27-6.44,19.73-6.17a8.58,8.58,0,1,0,.56-17.15c-13.21-.43-24.35,3.37-32.22,11-7.58,7.34-11.59,17.6-11.59,29.66a43.26,43.26,0,0,0,43.2,43.22c35.56,0,63.42-25.7,63.42-58.5,0-16.93-5.82-32.62-16.4-44.17-11.4-12.46-27.5-19.58-46.57-20.58h-.45c-24.67,0-45.6,8-60.54,23-14.19,14.33-22,34.57-22,57,0,19,8.62,38.46,24.33,54.93A9.17,9.17,0,0,0,859,646.48Z" transform="translate(-415.01 -448.23)"/><path d="M1000,507.51a29.64,29.64,0,1,0-29.63-29.64A29.66,29.66,0,0,0,1000,507.51Zm0-42.12a12.49,12.49,0,1,1-12.48,12.48A12.5,12.5,0,0,1,1000,465.39Z" transform="translate(-415.01 -448.23)"/><path d="M1083.85,633.38a43.26,43.26,0,0,0,43.2-43.22c0-12.07-4-22.32-11.59-29.66-7.86-7.62-19-11.42-32.22-11a8.58,8.58,0,0,0,.56,17.15c8.46-.27,15.28,1.86,19.73,6.17,4.17,4,6.37,10,6.37,17.33a26.09,26.09,0,0,1-26.05,26.06c-25.95,0-46.27-18.16-46.27-41.34,0-27.37,18.24-46,46.49-47.6,39.6.09,65.17,24.76,65.17,62.88,0,20-12.67,36-20.38,43.91l-.18.16-37.27,37.29h24.26l24-24a9.15,9.15,0,0,0,1.4-1.17,9.55,9.55,0,0,0,1-1.29c15.71-16.47,24.34-35.92,24.34-54.93,0-22.42-7.82-42.66-22-57-14.94-15.08-35.87-23-60.54-23h-.45c-19.06,1-35.17,8.12-46.57,20.58-10.58,11.55-16.4,27.24-16.4,44.17C1020.43,607.68,1048.29,633.38,1083.85,633.38Z" transform="translate(-415.01 -448.23)"/><path d="M680.33,775.7A29.64,29.64,0,1,0,710,805.34,29.67,29.67,0,0,0,680.33,775.7Zm0,42.13a12.49,12.49,0,1,1,12.48-12.49A12.5,12.5,0,0,1,680.33,817.83Z" transform="translate(-415.01 -448.23)"/><path d="M1268,842.22c-11.56-10.59-27.24-16.41-44.16-16.41-32.79,0-58.48,27.86-58.48,63.44a43.26,43.26,0,0,0,43.2,43.21c12.06,0,22.32-4,29.65-11.59,7.62-7.87,11.42-19,11-32.23a8.58,8.58,0,1,0-17.15.55c.28,8.47-1.85,15.3-6.16,19.75-4,4.16-10,6.36-17.33,6.36a26.08,26.08,0,0,1-26-26c0-26,18.15-46.28,41.33-46.28,27.35,0,46,18.24,47.58,46.5-.09,39.61-24.75,65.19-62.86,65.19-20,0-36-12.67-43.89-20.39l-.17-.17-35.82-35.84v24.27l22.51,22.52a9.19,9.19,0,0,0,1.18,1.41,9.54,9.54,0,0,0,1.28,1c16.46,15.71,35.9,24.34,54.91,24.34,22.42,0,42.65-7.82,57-22,15.08-14.94,23-35.89,23-60.56,0-.15,0-.3,0-.45C1287.58,869.73,1280.47,853.62,1268,842.22Z" transform="translate(-415.01 -448.23)"/><path d="M1319.67,775.7a29.64,29.64,0,1,0,29.63,29.64A29.68,29.68,0,0,0,1319.67,775.7Zm0,42.13a12.49,12.49,0,1,1,12.48-12.49A12.49,12.49,0,0,1,1319.67,817.83Z" transform="translate(-415.01 -448.23)"/><path d="M1208.58,638.87c-19,0-38.45,8.63-54.91,24.34a8.7,8.7,0,0,0-1.39,1.13l-23.58,23.59v24.26l34.55-34.56a8.21,8.21,0,0,0,1.22-1c7.82-7.7,23.94-20.61,44.11-20.61,38.11,0,62.77,25.58,62.86,65.19-1.57,28.26-20.23,46.51-47.58,46.51-23.18,0-41.33-20.33-41.33-46.28a26.08,26.08,0,0,1,26-26.06c7.31,0,13.3,2.2,17.33,6.37,4.31,4.45,6.44,11.28,6.16,19.74a8.58,8.58,0,0,0,17.15.56c.43-13.22-3.37-24.37-11-32.23-7.33-7.59-17.59-11.6-29.65-11.6a43.26,43.26,0,0,0-43.2,43.22c0,35.57,25.69,63.44,58.48,63.44,16.92,0,32.6-5.83,44.16-16.41,12.45-11.4,19.56-27.51,20.56-46.58,0-.15,0-.3,0-.45,0-24.68-8-45.62-23-60.56C1251.23,646.68,1231,638.87,1208.58,638.87Z" transform="translate(-415.01 -448.23)"/><path d="M1226,994.13a29.64,29.64,0,1,0,21,8.68A29.4,29.4,0,0,0,1226,994.13Zm8.82,38.47a12.49,12.49,0,1,1,0-17.66A12.41,12.41,0,0,1,1234.84,1032.6Z" transform="translate(-415.01 -448.23)"/><path d="M846.33,947.48a9.55,9.55,0,0,0,1.29-1,9.65,9.65,0,0,0,1.17-1.4l20.13-24.14V896.65L835.48,934.1a1.37,1.37,0,0,0-.17.17c-7.89,7.72-23.9,20.39-43.89,20.39-38.11,0-62.77-25.58-62.86-65.19,1.57-28.26,20.22-46.5,47.58-46.5,23.18,0,41.33,20.32,41.33,46.28a26.08,26.08,0,0,1-26.05,26c-7.31,0-13.3-2.2-17.33-6.36-4.31-4.45-6.44-11.28-6.16-19.75a8.58,8.58,0,1,0-17.15-.55c-.43,13.21,3.37,24.36,11,32.23,7.34,7.58,17.6,11.59,29.66,11.59a43.26,43.26,0,0,0,43.2-43.21c0-35.58-25.69-63.44-58.48-63.44-16.92,0-32.6,5.82-44.16,16.41-12.45,11.4-19.56,27.51-20.56,46.58,0,.15,0,.3,0,.45,0,24.67,8,45.62,23,60.56,14.32,14.19,34.55,22,57,22C810.43,971.82,829.86,963.19,846.33,947.48Z" transform="translate(-415.01 -448.23)"/><path d="M779.41,999.55a29.65,29.65,0,1,0,21,8.69A29.45,29.45,0,0,0,779.41,999.55Zm8.82,38.47a12.49,12.49,0,1,1,0-17.65A12.39,12.39,0,0,1,788.23,1038Z" transform="translate(-415.01 -448.23)"/><path d="M920.09,978a43.26,43.26,0,0,0-43.2,43.21c0,12.07,4,22.33,11.59,29.67,7.87,7.62,19,11.41,32.22,11a8.58,8.58,0,1,0-.56-17.15c-8.46.28-15.28-1.86-19.73-6.17-4.17-4-6.37-10-6.37-17.34a26.08,26.08,0,0,1,26.05-26c25.95,0,46.27,18.16,46.27,41.34,0,27.37-18.24,46-46.49,47.6-39.6-.1-65.17-24.76-65.17-62.89,0-20.17,12.9-36.3,20.59-44.11a8.91,8.91,0,0,0,1-1.23L911.11,940H886.85L863,964.85a8.7,8.7,0,0,0-1.13,1.39c-15.71,16.47-24.33,35.92-24.33,54.92,0,22.43,7.81,42.67,22,57,14.94,15.08,35.87,23,60.54,23l.45,0c19.07-1,35.17-8.11,46.57-20.57,10.58-11.56,16.4-27.24,16.4-44.17C983.51,1003.65,955.65,978,920.09,978Z" transform="translate(-415.01 -448.23)"/><path d="M1000,1087.77a29.64,29.64,0,1,0,29.63,29.64A29.66,29.66,0,0,0,1000,1087.77Zm0,42.12a12.49,12.49,0,1,1,12.48-12.48A12.5,12.5,0,0,1,1000,1129.89Z" transform="translate(-415.01 -448.23)"/><path d="M1141,964.94a8.91,8.91,0,0,0-1.39-1.16L1112.86,939l-20.26,2,36.08,36.1.18.16c7.71,7.9,20.38,23.91,20.38,43.9,0,38.13-25.57,62.79-65.17,62.89-28.25-1.57-46.49-20.23-46.49-47.6,0-23.18,20.32-41.34,46.27-41.34a26.08,26.08,0,0,1,26.05,26c0,7.32-2.2,13.31-6.37,17.34-4.45,4.31-11.27,6.44-19.73,6.17a8.58,8.58,0,0,0-.56,17.15c13.2.42,24.36-3.37,32.22-11,7.58-7.34,11.59-17.6,11.59-29.67a43.26,43.26,0,0,0-43.2-43.21c-35.56,0-63.42,25.7-63.42,58.5,0,16.93,5.82,32.61,16.4,44.17,11.4,12.46,27.51,19.58,46.57,20.57l.45,0c24.67,0,45.6-8,60.54-23,14.19-14.33,22-34.57,22-57,0-19-8.63-38.45-24.34-54.92A9.12,9.12,0,0,0,1141,964.94Z" transform="translate(-415.01 -448.23)"/><path d="M972.12,740.33A12.89,12.89,0,0,0,962,729.39c-8.41-1.85-.17-8.3,3-10.22-11.09,2.65-24.52,13.65-23.27,23.73a15.45,15.45,0,0,0,2.92,7.27,15.79,15.79,0,0,0,6.38,4.55,16.52,16.52,0,0,0,7.59,1c8.62-.81,14.33-7.91,13.48-15.38Zm-13.59,33.26c16.71-5.33,32.48-3.42,49,2.86,16,6.19,15.2-2.42,15.2-12.37,0-25.31-1-59.26-46.82-49.54,17.69-9.74,40-8.11,54.36-2.14a38.39,38.39,0,0,1,16.38,12.16,49.05,49.05,0,0,1,8.51,18.79,107.57,107.57,0,0,1,2.38,24v45.36c0,7.45.23,16.95,8.9,21.84,14.19,8,23.41-6.6,28-13.51-3.14,11-7.61,20.68-21,26.21-16,6.39-38.82,3.2-47.32-9.83-2.19-3.37-3.4-7.77-3.41-13.11,0-11.91,1.31-21.33-3.56-29.75-8.59-14.87-31.23-22.39-51.38-18-18.83,4.08-32.47,19.41-20.6,33.64,6.32,7.57,18.31,12.55,31.53,17.21,2.63.93,5.31,1.84,8,2.76,7.61,2.6,15.33,5.25,22.38,8.35,18.41,8.09,28.54,18.81,23.65,35.62-9.18-26.21-49.53-17.49-72.25-24.71-17.52-5.56-27.87-13.19-33.12-26.13C920.07,805.3,936.44,780.63,958.53,773.59Z" transform="translate(-415.01 -448.23)"/><path class="cls-3" d="M1008.05,864.69c18.67,6.64,6.12,29.23-12.7,33.31-23.36,5.07-43-4.25-56.05-18.81a48.45,48.45,0,0,1-6.25-8.49c-.55-.94-1.11-2-1.69-3.1H923.9l.75,35.28h3.6a36.8,36.8,0,0,1,7.67-7,13.17,13.17,0,0,1,7.11-2.17q3.5,0,12.21,3.37c11.35,4.32,22.77,7.13,34.23,6.73,12.36-.42,26.51-5.25,33.74-13.17,11.78-12.91,6.52-25.62-17.89-28.72C1000.19,860.83,1006.33,864.17,1008.05,864.69Z" transform="translate(-415.01 -448.23)"/><path d="M873.59,699.91a23.58,23.58,0,0,1,23.75-23.41h84.25v-4.93h-85a27.79,27.79,0,0,0-28,27.59V784.9h5Z" transform="translate(-415.01 -448.23)"/><polygon points="458.57 488.42 458.57 377.07 453.57 377.07 453.57 493.34 566.57 493.34 566.57 488.42 458.57 488.42"/><path d="M1127,913.7a23.13,23.13,0,0,1-23.29,22.95h-80.11v4.92h81.19a26.61,26.61,0,0,0,26.81-26.41V825.3H1127Z" transform="translate(-415.01 -448.23)"/><polygon points="711.98 228.27 711.98 336.67 716.57 336.67 716.57 223.34 608.57 223.34 608.57 228.27 711.98 228.27"/></svg>